<svg viewBox="0 0 128 128" width="128" height="128" xmlns="http://www.w3.org/2000/svg">
  <rect width="128" height="128" rx="16" fill="#E8F5E9" stroke="#388E3C" stroke-width="4"/>
  <g stroke="#212121" stroke-linecap="round" stroke-linejoin="round" fill="none">
    <!-- Profile Head with Open Mouth Notch -->
    <path d="M 52 18 C 64 18, 72 26, 72 36 C 72 40, 68 42, 64 42 L 58 42 L 64 48 C 66 52, 60 56, 52 56 C 40 56, 36 46, 36 36 C 36 26, 42 18, 52 18 Z" stroke-width="4" fill="#FFFFFF"/>
    <!-- Torso Spine -->
    <line x1="48" y1="56" x2="48" y2="88" stroke-width="4"/>
    <!-- Arm Bringing Food to Mouth -->
    <path d="M 48 64 L 78 74 L 72 48" stroke-width="4"/>
    <!-- Food Piece -->
    <circle cx="72" cy="44" r="6" fill="#388E3C" stroke="#388E3C" stroke-width="2"/>
    <!-- Legs -->
    <path d="M 38 116 L 48 88 L 62 116" stroke-width="4"/>
  </g>
</svg>
